<?xml version="1.0" encoding="UTF-8" standalone="no"?>
<!-- Created using Karbon, part of Calligra: http://www.calligra.org/karbon -->

<svg
   xmlns:dc="http://purl.org/dc/elements/1.1/"
   xmlns:cc="http://creativecommons.org/ns#"
   xmlns:rdf="http://www.w3.org/1999/02/22-rdf-syntax-ns#"
   xmlns:svg="http://www.w3.org/2000/svg"
   xmlns="http://www.w3.org/2000/svg"
   xmlns:sodipodi="http://sodipodi.sourceforge.net/DTD/sodipodi-0.dtd"
   xmlns:inkscape="http://www.inkscape.org/namespaces/inkscape"
   width="16"
   height="16"
   id="svg2"
   version="1.1"
   inkscape:version="0.48.3 r9882"
   sodipodi:docname="fcitx-punc-active.svg">
  <metadata
     id="metadata27">
    <rdf:RDF>
      <cc:Work
         rdf:about="">
        <dc:format>image/svg+xml</dc:format>
        <dc:type
           rdf:resource="http://purl.org/dc/dcmitype/StillImage" />
      </cc:Work>
    </rdf:RDF>
  </metadata>
  <sodipodi:namedview
     pagecolor="#d398a4"
     bordercolor="#666666"
     borderopacity="1"
     objecttolerance="10"
     gridtolerance="10"
     guidetolerance="10"
     inkscape:pageopacity="0.6"
     inkscape:pageshadow="2"
     inkscape:window-width="1366"
     inkscape:window-height="714"
     id="namedview25"
     showgrid="false"
     inkscape:zoom="10.429825"
     inkscape:cx="-20.331125"
     inkscape:cy="1.0941462"
     inkscape:window-x="-2"
     inkscape:window-y="-3"
     inkscape:window-maximized="1"
     inkscape:current-layer="layer1" />
  <defs
     id="defs4">
    <linearGradient
       id="gradient0"
       gradientTransform="translate(-17.2067,-36.2106)"
       gradientUnits="objectBoundingBox"
       x1="0.49745065"
       y1="1.5465724"
       x2="1.4974507"
       y2="1.5465724"
       spreadMethod="pad">
      <stop
         stop-color="#ffffff"
         offset="0.00000000000"
         stop-opacity="1.00000000000"
         id="stop7" />
      <stop
         stop-color="#ffffff"
         offset="0.81999999285"
         stop-opacity="0.71372549020"
         id="stop9" />
      <stop
         stop-color="#ffffff"
         offset="1.00000000000"
         stop-opacity="1.00000000000"
         id="stop11" />
    </linearGradient>
    <linearGradient
       id="gradient1"
       gradientTransform="translate(-72.7198,-35.7286)"
       gradientUnits="objectBoundingBox"
       x1="2.10267"
       y1="1.5342534"
       x2="3.10267"
       y2="1.5342534"
       spreadMethod="pad">
      <stop
         stop-color="#ffffff"
         offset="0.00000000000"
         stop-opacity="1.00000000000"
         id="stop14" />
      <stop
         stop-color="#ffffff"
         offset="0.81999999285"
         stop-opacity="0.71372549020"
         id="stop16" />
      <stop
         stop-color="#ffffff"
         offset="1.00000000000"
         stop-opacity="1.00000000000"
         id="stop18" />
    </linearGradient>
  </defs>
  <g
     id="layer1"
     transform="translate(0,-112)">
    <path
       style="font-size:medium;font-style:normal;font-variant:normal;font-weight:normal;font-stretch:normal;text-indent:0;text-align:start;text-decoration:none;line-height:normal;letter-spacing:normal;word-spacing:normal;text-transform:none;direction:ltr;block-progression:tb;writing-mode:lr-tb;text-anchor:start;baseline-shift:baseline;color:#000000;fill:#bebebe;fill-opacity:1;stroke:none;stroke-width:1.7857691;marker:none;visibility:visible;display:inline;overflow:visible;enable-background:accumulate;font-family:Sans;-inkscape-font-specification:Sans"
       d="m 3.875,113.96875 c -2.1263063,0 -3.875,1.7487 -3.875,3.875 0,2.12631 1.7486973,3.875 3.875,3.875 2.1263038,0 3.875,-1.74869 3.875,-3.875 0,-2.1263 -1.7486926,-3.875 -3.875,-3.875 z m 0,1.78125 c 1.1612042,0 2.0625,0.93255 2.0625,2.09375 0,1.16121 -0.9012922,2.09375 -2.0625,2.09375 -1.1612059,0 -2.09375,-0.93254 -2.09375,-2.09375 0,-1.1612 0.9325477,-2.09375 2.09375,-2.09375 z"
       id="path4715"
       inkscape:connector-curvature="0" />
    <path
       style="font-size:medium;font-style:normal;font-variant:normal;font-weight:normal;font-stretch:normal;text-indent:0;text-align:start;text-decoration:none;line-height:normal;letter-spacing:normal;word-spacing:normal;text-transform:none;direction:ltr;block-progression:tb;writing-mode:lr-tb;text-anchor:start;baseline-shift:baseline;color:#000000;fill:#bebebe;fill-opacity:1;stroke:none;stroke-width:1.7857691;marker:none;visibility:visible;display:inline;overflow:visible;enable-background:accumulate;font-family:Sans;-inkscape-font-specification:Sans"
       d="m 12.125,113.90625 c -2.1263061,0 -3.875,1.7487 -3.875,3.875 0,2.12631 1.7486975,3.84375 3.875,3.84375 0.409882,0 0.784603,-0.099 1.15625,-0.21875 -0.802258,1.35355 -2.049227,2.36281 -3.6875,2.96875 a 0.89297384,0.89297384 0 1 0 0.625,1.65625 c 3.364076,-1.24425 5.833631,-4.12691 5.78125,-8.1875 -2.84e-4,-0.022 4.34e-4,-0.0404 0,-0.0625 0,-0.0106 8.7e-5,-0.0207 0,-0.0312 a 0.89297384,0.89297384 0 0 0 -0.03125,-0.1875 0.89297384,0.89297384 0 0 0 -0.03125,-0.15625 0.89297384,0.89297384 0 0 0 -0.03125,-0.0312 c -0.215086,-1.92722 -1.799556,-3.46875 -3.78125,-3.46875 z m 0,1.78125 c 1.161204,0 2.09375,0.93255 2.09375,2.09375 0,1.16121 -0.932542,2.0625 -2.09375,2.0625 -1.161206,0 -2.09375,-0.90129 -2.09375,-2.0625 0,-1.1612 0.932548,-2.09375 2.09375,-2.09375 z"
       id="path5271"
       inkscape:connector-curvature="0" />
  </g>
</svg>
