<?xml version="1.0" encoding="UTF-8" standalone="no"?>
<!-- Created using Karbon, part of Calligra: http://www.calligra.org/karbon -->

<svg
   xmlns:dc="http://purl.org/dc/elements/1.1/"
   xmlns:cc="http://creativecommons.org/ns#"
   xmlns:rdf="http://www.w3.org/1999/02/22-rdf-syntax-ns#"
   xmlns:svg="http://www.w3.org/2000/svg"
   xmlns="http://www.w3.org/2000/svg"
   xmlns:sodipodi="http://sodipodi.sourceforge.net/DTD/sodipodi-0.dtd"
   xmlns:inkscape="http://www.inkscape.org/namespaces/inkscape"
   width="16"
   height="16"
   id="svg2"
   version="1.1"
   inkscape:version="0.48.3.1 r9886"
   sodipodi:docname="fcitx-kbd-symbolic.svg">
  <metadata
     id="metadata19">
    <rdf:RDF>
      <cc:Work
         rdf:about="">
        <dc:format>image/svg+xml</dc:format>
        <dc:type
           rdf:resource="http://purl.org/dc/dcmitype/StillImage" />
      </cc:Work>
    </rdf:RDF>
  </metadata>
  <sodipodi:namedview
     pagecolor="#908a82"
     bordercolor="#666666"
     borderopacity="1"
     objecttolerance="10"
     gridtolerance="10"
     guidetolerance="10"
     inkscape:pageopacity="0"
     inkscape:pageshadow="2"
     inkscape:window-width="1440"
     inkscape:window-height="845"
     id="namedview17"
     showgrid="true"
     inkscape:zoom="27.812867"
     inkscape:cx="14.464975"
     inkscape:cy="9.0306266"
     inkscape:window-x="0"
     inkscape:window-y="26"
     inkscape:window-maximized="1"
     inkscape:current-layer="layer1">
    <inkscape:grid
       type="xygrid"
       id="grid3150"
       empspacing="5"
       visible="true"
       enabled="true"
       snapvisiblegridlinesonly="true" />
  </sodipodi:namedview>
  <defs
     id="defs4">
    <linearGradient
       id="gradient0"
       gradientTransform="matrix(1.0122204,0,0,0.98792711,-253.42373,37.219012)"
       gradientUnits="userSpaceOnUse"
       x1="-2.8800824"
       y1="86.82933"
       x2="143.17409"
       y2="86.821533"
       spreadMethod="pad">
      <stop
         stop-color="#ffffff"
         offset="0.00000000000"
         stop-opacity="1.00000000000"
         id="stop7" />
      <stop
         stop-color="#ffffff"
         offset="0.81879192591"
         stop-opacity="0.71505302510"
         id="stop9" />
      <stop
         stop-color="#ffffff"
         offset="1.00000000000"
         stop-opacity="1.00000000000"
         id="stop11" />
    </linearGradient>
    <linearGradient
       id="gradient0-0"
       gradientTransform="matrix(13.856406,0,0,10.392305,24,42)"
       gradientUnits="userSpaceOnUse"
       x1="6.9035578"
       y1="4.6169548"
       x2="6.9035578"
       y2="13.854558"
       spreadMethod="pad">
      <stop
         stop-color="#ffffff"
         offset="0.00000000000"
         stop-opacity="1.00000000000"
         id="stop7-3" />
      <stop
         stop-color="#ffffff"
         offset="0.81879192591"
         stop-opacity="0.71505302510"
         id="stop9-6" />
      <stop
         stop-color="#ffffff"
         offset="1.00000000000"
         stop-opacity="1.00000000000"
         id="stop11-1" />
    </linearGradient>
  </defs>
  <g
     id="layer1"
     transform="translate(0,-176)">
    <path
       style="fill:#bebebe;fill-opacity:1"
       d="M 2 3 C 0.85629 3 0 3.848 0 5 L 0 12 C 0 13.1551 0.91667 14 2 14 L 14 14 C 15.1277 14 16 13.1104 16 12 L 16 5 C 16 3.9007 15.0993 3 14 3 L 2 3 z M 2 4 L 14 4 C 14.5469 4 15 4.4531 15 5 L 15 12 C 15 12.524 14.5391 13 14 13 L 2 13 C 1.5 13 1 12.5625 1 12 L 1 5 C 1 4.4844 1.49219 4 2 4 z M 2 5 L 2 12 L 14 12 L 14 5 L 2 5 z M 3 6 L 5 6 L 5 7 L 3 7 L 3 6 z M 6 6 L 7 6 L 7 7 L 6 7 L 6 6 z M 8 6 L 9 6 L 9 7 L 8 7 L 8 6 z M 10 6 L 11 6 L 11 9 L 10 9 L 10 6 z M 12 6 L 13 6 L 13 7 L 12 7 L 12 6 z M 3 8 L 5 8 L 5 9 L 3 9 L 3 8 z M 6 8 L 7 8 L 7 9 L 6 9 L 6 8 z M 8 8 L 9 8 L 9 9 L 8 9 L 8 8 z M 12 8 L 13 8 L 13 9 L 12 9 L 12 8 z M 3 10 L 7 10 L 7 11 L 3 11 L 3 10 z M 8 10 L 11 10 L 11 11 L 8 11 L 8 10 z M 12 10 L 13 10 L 13 11 L 12 11 L 12 10 z "
       transform="translate(0,176)"
       id="path3850" />
  </g>
</svg>
