/* XPM */
static char * active_xpm[] = {
"16 16 41 1",
"  s None c None",
". c #969696",
"# c #252525",
"a c #000000",
"b c #010101",
"c c #e0e0e0",
"d c #959595",
"e c #767676",
"f c #525252",
"g c #090909",
"h c #0a0a0a",
"i c #0c0c0c",
"j c #565656",
"k c #d2d96e",
"l c #595959",
"m c #343434",
"n c #c9c9c9",
"o c #cacaca",
"p c #cbcbcb",
"q c #5e5e5e",
"r c #393939",
"s c #aaaaaa",
"t c #161616",
"u c #3c3c3c",
"v c #171717",
"w c #3e3e3e",
"x c #181818",
"y c #d1d1d1",
"z c #1a1a1a",
"A c #f9f9f9",
"B c #d3d3d3",
"C c #3f3f3f",
"D c #1c1c1c",
"E c #d6d6d6",
"F c #d5d5d5",
"G c #1f1f1f",
"H c #008000",
"I c #212121",
"J c #6b6b6b",
"K c #ffffff",
"L c #dcdcdc",
"          KKK   ",
"         KLdAK  ",
"        KytHuAK ",
"       KBvHHHCAK",
"      KFvHHHHHjK",
"     KExHHHHHHmK",
"    KEzHHHHHHipK",
"   KFDHHHHHHhoK ",
"  KBGHHHHHHgnK  ",
"  KlHHHHHHgnK   ",
" KcbskkHHgnK    ",
" KJIkkkHgnK     ",
"KKzrkkqgnK      ",
"KFaaia#.K       ",
"KKfweEKK        ",
" KKKKK          "};
