/* XPM */
static char * inactive_xpm[] = {
"22 22 2 1",
" 	c None",
".	c #969696",
"                      ",
"                      ",
"                      ",
"          .           ",
"          .           ",
"          .......     ",
"                .     ",
"  ..................  ",
"  .                .  ",
"  . .. .. ... . .. .  ",
"  . .. .. ... .    .  ",
"  .           . .. .  ",
"  . .. .. ...      .  ",
"  . .. .. ... . .. .  ",
"  .                .  ",
"  . ......... .... .  ",
"  . ......... .... .  ",
"  .                .  ",
"  ..................  ",
"                      ",
"                      ",
"                      "};
