/* XPM */
static char * inactive_xpm[] = {
"16 16 28 1",
" 	c None",
".	c #C2C2C2",
"+	c #999999",
"@	c #3E3E3E",
"#	c #BCBCBC",
"$	c #8A8A8A",
"%	c #000000",
"&	c #002C00",
"*	c #070707",
"=	c #8E8E8E",
"-	c #080808",
";	c #909090",
">	c #101010",
",	c #050505",
"'	c #808080",
")	c #010101",
"!	c #7F7F7F",
"~	c #121212",
"{	c #9F9F9F",
"]	c #565656",
"^	c #8C951E",
"/	c #1C1C1C",
"(	c #060606",
"_	c #141414",
":	c #020202",
"<	c #404040",
"[	c #0F0F0F",
"}	c #232323",
"          ...   ",
"         .+@#.  ",
"        .$%&*#. ",
"       .=%&&&-#.",
"      .;%&&&&&>.",
"     .;%&&&&&&,.",
"    .;%&&&&&&%'.",
"   .;)&&&&&&%'. ",
"  .=)&&&&&&%!.  ",
"  .~&&&&&&%!.   ",
" .{%]^^&&%!.    ",
" ./)^^^&%!.     ",
"..%(^^_%!.      ",
".;%%%%:<.       ",
"..[*};..        ",
" .....          "};
