<?xml version="1.0" encoding="UTF-8" standalone="no"?>
<!-- Created using Karbon, part of Calligra: http://www.calligra.org/karbon -->

<svg
   xmlns:dc="http://purl.org/dc/elements/1.1/"
   xmlns:cc="http://creativecommons.org/ns#"
   xmlns:rdf="http://www.w3.org/1999/02/22-rdf-syntax-ns#"
   xmlns:svg="http://www.w3.org/2000/svg"
   xmlns="http://www.w3.org/2000/svg"
   xmlns:sodipodi="http://sodipodi.sourceforge.net/DTD/sodipodi-0.dtd"
   xmlns:inkscape="http://www.inkscape.org/namespaces/inkscape"
   width="153.6pt"
   height="153.6pt"
   id="svg2"
   version="1.1"
   inkscape:version="0.48.3.1 r9886"
   sodipodi:docname="fcitx-kbd-symbolic.svg">
  <metadata
     id="metadata19">
    <rdf:RDF>
      <cc:Work
         rdf:about="">
        <dc:format>image/svg+xml</dc:format>
        <dc:type
           rdf:resource="http://purl.org/dc/dcmitype/StillImage" />
      </cc:Work>
    </rdf:RDF>
  </metadata>
  <sodipodi:namedview
     pagecolor="#908a82"
     bordercolor="#666666"
     borderopacity="1"
     objecttolerance="10"
     gridtolerance="10"
     guidetolerance="10"
     inkscape:pageopacity="0.56470588"
     inkscape:pageshadow="2"
     inkscape:window-width="1440"
     inkscape:window-height="846"
     id="namedview17"
     showgrid="false"
     inkscape:zoom="1.2291667"
     inkscape:cx="-147.25424"
     inkscape:cy="9.1847153"
     inkscape:window-x="-2"
     inkscape:window-y="-3"
     inkscape:window-maximized="1"
     inkscape:current-layer="layer1" />
  <defs
     id="defs4">
    <linearGradient
       id="gradient0"
       gradientTransform="matrix(1.0122204,0,0,0.98792711,-253.42373,37.219012)"
       gradientUnits="userSpaceOnUse"
       x1="-2.8800824"
       y1="86.82933"
       x2="143.17409"
       y2="86.821533"
       spreadMethod="pad">
      <stop
         stop-color="#ffffff"
         offset="0.00000000000"
         stop-opacity="1.00000000000"
         id="stop7" />
      <stop
         stop-color="#ffffff"
         offset="0.81879192591"
         stop-opacity="0.71505302510"
         id="stop9" />
      <stop
         stop-color="#ffffff"
         offset="1.00000000000"
         stop-opacity="1.00000000000"
         id="stop11" />
    </linearGradient>
    <linearGradient
       id="gradient0-0"
       gradientTransform="matrix(13.856406,0,0,10.392305,24,42)"
       gradientUnits="userSpaceOnUse"
       x1="6.9035576"
       y1="4.6169547"
       x2="6.9035576"
       y2="13.854558"
       spreadMethod="pad">
      <stop
         stop-color="#ffffff"
         offset="0.00000000000"
         stop-opacity="1.00000000000"
         id="stop7-3" />
      <stop
         stop-color="#ffffff"
         offset="0.81879192591"
         stop-opacity="0.71505302510"
         id="stop9-6" />
      <stop
         stop-color="#ffffff"
         offset="1.00000000000"
         stop-opacity="1.00000000000"
         id="stop11-1" />
    </linearGradient>
  </defs>
  <g
     id="layer1">
    <path
       style="opacity:1;fill:#bebebe;fill-opacity:1"
       inkscape:connector-curvature="0"
       id="path3850"
       d="M 36,30 C 22.27548,30 12,40.176 12,54 l 0,84 c 0,13.8612 11.00004,24 24,24 l 120,0 c 13.5324,0 24,-10.6752 24,-24 l 0,-84 C 180,40.8084 169.1916,30 156,30 z m 0,12 120,0 c 6.5628,0 12,5.4372 12,12 l 0,84 c 0,6.288 -5.5308,12 -12,12 l -120,0 c -6,0 -12,-5.25 -12,-12 l 0,-84 c 0,-6.1872 5.90628,-12 12,-12 z m -0.3756,12 0,42 0,42.375 60.375,0 60.3744,0 0,-42.375 0,-42 -60.3744,0 z m 12.75,12 11.625,0 12,0 0,5.625 0,6 -8.25,0 c -4.5408,0.002 -10.05396,0.1956 -12,0.3756 l -3.375,0 0,-6 z m 35.625,0 5.625,0 6,0 0,5.625 0,6 -6,0 -5.625,0 0,-6 z m 24,0 6,0 5.625,0 0,5.625 0,6 -5.625,0 -6,0 0,-6 z m 24.3744,0 5.6256,0 5.6244,0 0,17.625 0,18 -5.6244,0 -5.6256,0 0,-18 z m -83.9994,24 11.625,0 12,0 0,6 0,5.625 -12,0 -11.625,0 0,-5.625 z m 35.625,0 5.625,0 6,0 0,6 0,5.625 -6,0 -5.625,0 0,-5.625 z m 24,0 6,0 5.625,0 0,6 0,5.625 -5.625,0 -6,0 0,-5.625 z m -59.625,24.375 23.625,0 23.625,0 0,5.625 0,5.625 -23.625,0 -23.625,0 0,-5.625 z m 59.625,0 18,0 17.6244,0 0,5.625 0,5.625 -17.6244,0 -18,0 0,-5.625 z" />
  </g>
</svg>
