<?xml version="1.0" encoding="UTF-8" standalone="no"?>
<!-- Created using Karbon, part of Calligra: http://www.calligra.org/karbon -->

<svg
   xmlns:dc="http://purl.org/dc/elements/1.1/"
   xmlns:cc="http://creativecommons.org/ns#"
   xmlns:rdf="http://www.w3.org/1999/02/22-rdf-syntax-ns#"
   xmlns:svg="http://www.w3.org/2000/svg"
   xmlns="http://www.w3.org/2000/svg"
   xmlns:sodipodi="http://sodipodi.sourceforge.net/DTD/sodipodi-0.dtd"
   xmlns:inkscape="http://www.inkscape.org/namespaces/inkscape"
   width="153.6pt"
   height="153.6pt"
   id="svg2"
   version="1.1"
   inkscape:version="0.48.2 r9819"
   sodipodi:docname="fcitx-keyboard.svg">
  <metadata
     id="metadata19">
    <rdf:RDF>
      <cc:Work
         rdf:about="">
        <dc:format>image/svg+xml</dc:format>
        <dc:type
           rdf:resource="http://purl.org/dc/dcmitype/StillImage" />
      </cc:Work>
    </rdf:RDF>
  </metadata>
  <sodipodi:namedview
     pagecolor="#908a82"
     bordercolor="#666666"
     borderopacity="1"
     objecttolerance="10"
     gridtolerance="10"
     guidetolerance="10"
     inkscape:pageopacity="0.56470588"
     inkscape:pageshadow="2"
     inkscape:window-width="1366"
     inkscape:window-height="713"
     id="namedview17"
     showgrid="false"
     inkscape:zoom="1.2291667"
     inkscape:cx="-26.033898"
     inkscape:cy="6.5683233"
     inkscape:window-x="-2"
     inkscape:window-y="-3"
     inkscape:window-maximized="1"
     inkscape:current-layer="layer1" />
  <defs
     id="defs4">
    <linearGradient
       id="gradient0"
       gradientTransform="scale(1.0122204,0.98792711)"
       gradientUnits="userSpaceOnUse"
       x1="-2.8800824"
       y1="86.82933"
       x2="143.17409"
       y2="86.821533"
       spreadMethod="pad">
      <stop
         stop-color="#ffffff"
         offset="0.00000000000"
         stop-opacity="1.00000000000"
         id="stop7" />
      <stop
         stop-color="#ffffff"
         offset="0.81879192591"
         stop-opacity="0.71505302510"
         id="stop9" />
      <stop
         stop-color="#ffffff"
         offset="1.00000000000"
         stop-opacity="1.00000000000"
         id="stop11" />
    </linearGradient>
  </defs>
  <g
     id="layer1">
    <path
       id="path3998-0-6-7"
       d="M67.9688 0.000234751C61.9344 0.0439848 56 5.99313 56 12.5627L56 16.5627L56 20.5627C56 24.6627 57.3796 29.0048 60.4688 32.094C63.5579 35.1832 67.9 36.5627 72 36.5627L88 36.5627L100 36.5627L104 36.5627L104 40.5627L104 44.5627L60 44.5627L16 44.5627C11.9 44.5627 7.55795 45.9423 4.46875 49.0315C1.37955 52.1207 0 56.4627 0 60.5627L0 100.563L0 140.563C0 144.663 1.37955 149.005 4.46875 152.094C7.55795 155.183 11.9 156.563 16 156.563L80 156.563L144 156.563C148.1 156.563 152.442 155.183 155.531 152.094C158.62 149.005 160 144.663 160 140.563L160 100.563L160 60.5627C160 56.4627 158.62 52.1207 155.531 49.0315C152.442 45.9423 148.1 44.5627 144 44.5627L128 44.5627L128 36.5627L128 28.5627C128 24.4627 126.62 20.1207 123.531 17.0315C120.442 13.9423 116.1 12.5627 112 12.5627L96 12.5627L80 12.5627C80.0146 6.01522 73.9935 -0.0434452 67.9688 0.000234751ZM68 8.03148C70.0039 8.01696 72.0158 9.50462 72 12.5627L72 20.5627L80 20.5627L96 20.5627L112 20.5627C117 20.5627 120 23.5628 120 28.5627L120 36.5627L120 44.5627L120 52.5627L144 52.5627C149 52.5627 152 55.5627 152 60.5627L152 100.563L152 140.563C152 145.563 149 148.563 144 148.563L80 148.563L16 148.563C11 148.563 8 145.563 8 140.563L8 100.563L8 60.5627C8 55.5627 11 52.5627 16 52.5627L60 52.5627L104 52.5627L112 52.5627L112 44.5627L112 40.5627L112 34.5627L112 28.5627L100 28.5627L88 28.5627L72 28.5627C67 28.5627 64 25.5627 64 20.5627L64 16.5627L64 12.5627C64 9.56273 65.9961 8.04601 68 8.03148ZM16 60.5627L16 68.5627L16 100.563L16 120.563L16 140.563L144 140.563L144 60.5627L112 60.5627L80 60.5627L24 60.5627ZM24 68.5627L40 68.5627L40 84.5627L24 84.5627ZM48 68.5627L64 68.5627L64 84.5627L48 84.5627ZM72 68.5627L88 68.5627L88 84.5627L72 84.5627ZM96 68.5627L112 68.5627L112 84.5627L96 84.5627ZM120 68.5627L136 68.5627L136 108.563L120 108.563ZM24 92.5627L40 92.5627L40 108.563L24 108.563ZM48 92.5627L64 92.5627L64 108.563L48 108.563ZM72 92.5627L88 92.5627L88 108.563L72 108.563ZM96 92.5627L112 92.5627L112 108.563L96 108.563ZM24 116.563L88 116.563L88 132.563L24 132.563ZM96 116.563L136 116.563L136 132.563L96 132.563Z"
       fill="#000000"
       opacity="0.40000000000"
       transform="translate(16, 19.4373)" />
    <path
       id="path3998-0-6"
       d="M64 4.54369C64 8.54369 64 12.5437 64 12.5437C64 12.5437 68 12.5437 72 12.5437L88 12.5436L104 12.5437C109 12.5437 112 15.5437 112 20.5437L112 28.5437L112 36.5437L112 44.5437L136 44.5437C141 44.5437 144 47.5437 144 52.5437L144 92.5436L144 132.544C144 137.544 141 140.544 136 140.544L72 140.544L8 140.544C3 140.544 0 137.544 0 132.544L0 92.5436L0 52.5437C0 47.5437 3 44.5437 8 44.5437L52 44.5437L96 44.5437L104 44.5437L104 36.5437L104 32.5437L104 26.5437L104 20.5437L92 20.5437L80 20.5437L64 20.5437C59 20.5437 56 17.5437 56 12.5437L56 8.54365L56 4.54369C56 -1.45631 64.0316 -1.57253 64 4.54369ZM8 60.5437L8 92.5436L8 112.544L8 132.544L136 132.544L136 52.5437L104 52.5437L72 52.5437L16 52.5437C13.5 52.5437 8 52.5437 8 52.5437C8 52.5437 8 57.5437 8 60.5437ZM16 60.5437L32 60.5437L32 76.5437L16 76.5437ZM40 60.5437L56 60.5437L56 76.5437L40 76.5437ZM64 60.5437L80 60.5437L80 76.5437L64 76.5437ZM88 60.5437L104 60.5437L104 76.5437L88 76.5437ZM112 60.5437L128 60.5437C128 73.8757 128 88.63 128 100.544L112 100.544C112 87.2117 112 72.4573 112 60.5437ZM16 84.5437L32 84.5437L32 100.544L16 100.544ZM40 84.5437L56 84.5437L56 100.544L40 100.544ZM64 84.5437L80 84.5437L80 100.544L64 100.544ZM88 84.5437L104 84.5437L104 100.544L88 100.544ZM16 108.544C37.3333 108.544 58.6666 108.544 80 108.544L80 124.544C58.6666 124.544 37.3333 124.544 16 124.544ZM88 108.544C101.332 108.544 116.086 108.544 128 108.544L128 124.544C114.667 124.544 101.333 124.544 88 124.544Z"
       fill="url(#gradient0)"
       transform="translate(24, 27.4563)"
       style="opacity:0.69999999999999996;fill:url(#gradient0)" />
  </g>
</svg>
