<?xml version="1.0" encoding="UTF-8" standalone="no"?>
<!-- Created with Inkscape (http://www.inkscape.org/) -->

<svg
   xmlns:dc="http://purl.org/dc/elements/1.1/"
   xmlns:cc="http://creativecommons.org/ns#"
   xmlns:rdf="http://www.w3.org/1999/02/22-rdf-syntax-ns#"
   xmlns:svg="http://www.w3.org/2000/svg"
   xmlns="http://www.w3.org/2000/svg"
   xmlns:xlink="http://www.w3.org/1999/xlink"
   xmlns:sodipodi="http://sodipodi.sourceforge.net/DTD/sodipodi-0.dtd"
   xmlns:inkscape="http://www.inkscape.org/namespaces/inkscape"
   width="192"
   height="192"
   id="svg2"
   version="1.1"
   inkscape:version="0.48.2 r9819"
   sodipodi:docname="fcitx-keyboard.svg"
   inkscape:export-filename="/home/saber/inactive.png"
   inkscape:export-xdpi="11.25"
   inkscape:export-ydpi="11.25">
  <defs
     id="defs4">
    <linearGradient
       id="linearGradient7886">
      <stop
         style="stop-color:#ececec;stop-opacity:1;"
         offset="0"
         id="stop7888" />
      <stop
         id="stop7890"
         offset="0.81879193"
         style="stop-color:#e8e8e8;stop-opacity:0.71505374;" />
      <stop
         style="stop-color:#e8e8e8;stop-opacity:1;"
         offset="1"
         id="stop7892" />
    </linearGradient>
    <linearGradient
       id="linearGradient7717">
      <stop
         id="stop7719"
         offset="0"
         style="stop-color:#ffffff;stop-opacity:1;" />
      <stop
         style="stop-color:#ffffff;stop-opacity:0.71505374;"
         offset="0.81879193"
         id="stop7723" />
      <stop
         id="stop7721"
         offset="1"
         style="stop-color:#ffffff;stop-opacity:1;" />
    </linearGradient>
    <linearGradient
       inkscape:collect="always"
       xlink:href="#linearGradient5008-0"
       id="linearGradient5765-0"
       gradientUnits="userSpaceOnUse"
       x1="3.499999"
       y1="1028.3622"
       x2="44.5"
       y2="1028.3622" />
    <linearGradient
       id="linearGradient5008-0">
      <stop
         style="stop-color:#000000;stop-opacity:0.15686275;"
         offset="0"
         id="stop5010-0" />
      <stop
         id="stop5016-4"
         offset="0.5"
         style="stop-color:#000000;stop-opacity:0.39215687;" />
      <stop
         style="stop-color:#000000;stop-opacity:0.15686275;"
         offset="1"
         id="stop5012-7" />
    </linearGradient>
    <linearGradient
       inkscape:collect="always"
       xlink:href="#linearGradient5008-1"
       id="linearGradient5765-3"
       gradientUnits="userSpaceOnUse"
       x1="3.499999"
       y1="1028.3622"
       x2="44.5"
       y2="1028.3622" />
    <linearGradient
       id="linearGradient5008-1">
      <stop
         style="stop-color:#000000;stop-opacity:0.15686275;"
         offset="0"
         id="stop5010-4" />
      <stop
         id="stop5016-2"
         offset="0.5"
         style="stop-color:#000000;stop-opacity:0.39215687;" />
      <stop
         style="stop-color:#000000;stop-opacity:0.15686275;"
         offset="1"
         id="stop5012-0" />
    </linearGradient>
    <linearGradient
       inkscape:collect="always"
       xlink:href="#linearGradient5008-1"
       id="linearGradient7780"
       gradientUnits="userSpaceOnUse"
       x1="1"
       y1="11"
       x2="21"
       y2="11"
       gradientTransform="matrix(7.9999968,0,0,8.000008,8.0000064,868.36219)" />
    <linearGradient
       inkscape:collect="always"
       xlink:href="#linearGradient5008-1-1"
       id="linearGradient7780-4"
       gradientUnits="userSpaceOnUse"
       x1="1"
       y1="11"
       x2="21"
       y2="11" />
    <linearGradient
       id="linearGradient5008-1-1">
      <stop
         style="stop-color:#000000;stop-opacity:0.15686275;"
         offset="0"
         id="stop5010-4-4" />
      <stop
         id="stop5016-2-2"
         offset="0.5"
         style="stop-color:#000000;stop-opacity:0.39215687;" />
      <stop
         style="stop-color:#000000;stop-opacity:0.15686275;"
         offset="1"
         id="stop5012-0-0" />
    </linearGradient>
    <linearGradient
       inkscape:collect="always"
       xlink:href="#linearGradient5008-1-1"
       id="linearGradient7832"
       gradientUnits="userSpaceOnUse"
       gradientTransform="translate(34,-1)"
       x1="1"
       y1="11"
       x2="21"
       y2="11" />
    <linearGradient
       inkscape:collect="always"
       xlink:href="#linearGradient5008-1-1"
       id="linearGradient7847"
       gradientUnits="userSpaceOnUse"
       gradientTransform="translate(51,1030.3622)"
       x1="1"
       y1="11"
       x2="21"
       y2="11" />
    <linearGradient
       inkscape:collect="always"
       xlink:href="#linearGradient5008-1-1"
       id="linearGradient7849"
       gradientUnits="userSpaceOnUse"
       gradientTransform="translate(44,1017.3622)"
       x1="1"
       y1="11"
       x2="21"
       y2="11" />
    <linearGradient
       inkscape:collect="always"
       xlink:href="#linearGradient7717"
       id="linearGradient3824"
       x1="20.125"
       y1="62.90625"
       x2="109.875"
       y2="62.90625"
       gradientUnits="userSpaceOnUse" />
    <linearGradient
       inkscape:collect="always"
       xlink:href="#linearGradient7717"
       id="linearGradient3815"
       x1="24.621426"
       y1="96.035683"
       x2="167.457"
       y2="96.035683"
       gradientUnits="userSpaceOnUse" />
    <linearGradient
       inkscape:collect="always"
       xlink:href="#linearGradient5008-1-9"
       id="linearGradient7780-40"
       gradientUnits="userSpaceOnUse"
       x1="1"
       y1="11"
       x2="21"
       y2="11"
       gradientTransform="matrix(7.9999968,0,0,8.000008,8.0000064,868.36219)" />
    <linearGradient
       id="linearGradient5008-1-9">
      <stop
         style="stop-color:#000000;stop-opacity:0.15686275;"
         offset="0"
         id="stop5010-4-45" />
      <stop
         id="stop5016-2-4"
         offset="0.5"
         style="stop-color:#000000;stop-opacity:0.39215687;" />
      <stop
         style="stop-color:#000000;stop-opacity:0.15686275;"
         offset="1"
         id="stop5012-0-6" />
    </linearGradient>
    <linearGradient
       y2="11"
       x2="21"
       y1="11"
       x1="1"
       gradientTransform="matrix(7.9999968,0,0,8.000008,8.000009,868.36213)"
       gradientUnits="userSpaceOnUse"
       id="linearGradient3919"
       xlink:href="#linearGradient7717"
       inkscape:collect="always" />
  </defs>
  <sodipodi:namedview
     id="base"
     pagecolor="#216ccf"
     bordercolor="#666666"
     borderopacity="1.0"
     inkscape:pageopacity="0.65490196"
     inkscape:pageshadow="2"
     inkscape:zoom="1.9999999"
     inkscape:cx="40.089882"
     inkscape:cy="95.464264"
     inkscape:document-units="px"
     inkscape:current-layer="layer1"
     showgrid="true"
     inkscape:window-width="1366"
     inkscape:window-height="710"
     inkscape:window-x="-2"
     inkscape:window-y="-3"
     inkscape:window-maximized="1"
     inkscape:snap-global="true"
     inkscape:snap-to-guides="false">
    <inkscape:grid
       empspacing="5"
       visible="true"
       enabled="true"
       snapvisiblegridlinesonly="true"
       type="xygrid"
       id="grid3981" />
  </sodipodi:namedview>
  <metadata
     id="metadata7">
    <rdf:RDF>
      <cc:Work
         rdf:about="">
        <dc:format>image/svg+xml</dc:format>
        <dc:type
           rdf:resource="http://purl.org/dc/dcmitype/StillImage" />
        <dc:title></dc:title>
      </cc:Work>
    </rdf:RDF>
  </metadata>
  <g
     inkscape:label="Layer 1"
     inkscape:groupmode="layer"
     id="layer1"
     transform="translate(0,-860.3622)">
    <path
       style="font-size:medium;font-style:normal;font-variant:normal;font-weight:normal;font-stretch:normal;text-indent:0;text-align:start;text-decoration:none;line-height:normal;letter-spacing:normal;word-spacing:normal;text-transform:none;direction:ltr;block-progression:tb;writing-mode:lr-tb;text-anchor:start;baseline-shift:baseline;color:#000000;fill:url(#linearGradient7780);fill-opacity:1;fill-rule:nonzero;stroke:none;stroke-width:0.89999998;marker:none;visibility:visible;display:inline;overflow:visible;enable-background:accumulate;font-family:Sans;-inkscape-font-specification:Sans"
       mask="none"
       d="m 71.999978,876.3622 0,40.00004 47.999982,0 0,8.00001 -103.99996,0 0,111.99995 160,0 0,-111.99995 -32.00005,0 0,-32.00003 -47.999982,0 0,-16.00002 c -8.854644,0.002 -16.130266,0.002 -23.99999,0 z m 7.999996,8.00001 7.999997,0 0,16.00001 47.999979,0 0,32.00004 32.00005,0 0,95.99994 -144.000003,0 0,-95.99994 103.999963,0 0,-24.00003 -47.999986,0 z m -47.99998,56.00005 0,79.99994 128.000016,0 0,-79.99994 z m 7.999996,8.00001 15.999994,0 0,16.00002 -15.999994,0 z m 23.999991,0 15.999993,0 0,16.00002 -15.999993,0 z m 23.99999,0 15.999989,0 0,16.00002 -15.999989,0 z m 23.999989,0 16,0 0,16.00002 -16,0 z m 23.99999,0 16.00001,0 c 0,13.33202 0,28.08627 0,39.99988 l -16.00001,0 c 0,-13.33185 0,-28.08627 0,-39.99988 z m -95.99996,24.00003 15.999994,0 0,15.99985 -15.999994,0 z m 23.999991,0 15.999993,0 0,15.99985 -15.999993,0 z m 23.99999,0 15.999989,0 0,15.99985 -15.999989,0 z m 23.999989,0 16,0 0,15.99985 -16,0 z m -71.99997,23.99986 c 21.333326,0 42.666649,0 63.99997,0 l 0,16.00004 c -21.333321,0 -42.666644,0 -63.99997,0 z m 71.99997,0 c 13.33206,0 28.08644,0 40,0 l 0,16.00004 c -13.33335,0 -26.66667,0 -40,0 z"
       id="path3998-0"
       inkscape:connector-curvature="0"
       sodipodi:nodetypes="cccccccccccccccccccccccccccccccccccccccccccccccccccccccccccccccccccccccccccccccccccccc" />
    <path
       style="fill:none;stroke:none"
       d="m 94,947.40905 0,1.4688 0,1.4687 3,0 3,0 0,1.5 0,1.5 -6.46875,0 -6.5,0 0,5.9688 0,6 8.96875,0 8.96875,0 0,-6 0,-5.9688 -2.03125,0 -2.03125,0 0,-2 0,-1.9687 -2.96875,0 -2.96875,0 0,-1 0,-0.9688 -0.46875,0 -0.5,0 z m 10,6.9063 0,5.0312 0,5.0313 -8,0 c -6.320061,0 -8.029106,-0.01 -8.0625,-0.094 -0.02325,-0.061 -0.01263,-2.3332 0,-5.0312 l 0,-4.9063 8.03125,0 8.03125,-0.031 z m -15.03125,1.0625 0,0.9687 0,0.9688 0.96875,0 0.96875,0 0,-0.9688 0,-0.9687 -0.96875,0 -0.96875,0 z m 3,0 0,0.9687 0,0.9688 0.96875,0 0.96875,0 0,-0.9688 0,-0.9687 -0.96875,0 -0.96875,0 z m 3,0 0,0.9687 0,0.9688 0.96875,0 0.96875,0 0,-0.9688 0,-0.9687 -0.96875,0 -0.96875,0 z m 3,0 0,0.9687 0,0.9688 0.96875,0 1,0 0,-0.9688 0,-0.9687 -1,0 -0.96875,0 z m 3.03125,0 0,2.4687 0,2.4688 0.96875,0 0.96875,0 0,-2.4688 0,-2.4687 -0.96875,0 -0.96875,0 z m -12.03125,3 0,0.9687 0,0.9688 0.96875,0 0.96875,0 0,-0.9688 0,-0.9687 -0.96875,0 -0.96875,0 z m 3,0 0,0.9687 0,0.9688 0.96875,0 0.96875,0 0,-0.9688 0,-0.9687 -0.96875,0 -0.96875,0 z m 3,0 0,0.9687 0,0.9688 0.96875,0 0.96875,0 0,-0.9688 0,-0.9687 -0.96875,0 -0.96875,0 z m 3,0 0,0.9687 0,0.9688 0.96875,0 1,0 0,-0.9688 0,-0.9687 -1,0 -0.96875,0 z m -9,3 0,0.9687 0,0.9688 3.96875,0 3.96875,0 0,-0.9688 0,-0.9687 -3.96875,0 -3.96875,0 z m 9,0 0,0.9687 0,0.9688 2.5,0 2.46875,0 0,-0.9688 0,-0.9687 -2.46875,0 -2.5,0 z"
       id="path7853"
       inkscape:connector-curvature="0" />
    <path
       style="font-size:medium;font-style:normal;font-variant:normal;font-weight:normal;font-stretch:normal;text-indent:0;text-align:start;text-decoration:none;line-height:normal;letter-spacing:normal;word-spacing:normal;text-transform:none;direction:ltr;block-progression:tb;writing-mode:lr-tb;text-anchor:start;baseline-shift:baseline;color:#000000;fill:url(#linearGradient3919);fill-opacity:1.0;fill-rule:nonzero;stroke:none;stroke-width:0.89999998000000003;marker:none;visibility:visible;display:inline;overflow:visible;enable-background:accumulate;font-family:Sans;-inkscape-font-specification:Sans"
       mask="none"
       d="m 79.999977,884.36215 7.999996,0 0,16.00001 47.999977,0 0,32.00004 32.00005,0 0,95.9999 -144,0 0,-95.9999 103.99996,0 0,-24.00003 -47.999983,0 z m -47.99998,56.00005 0,79.9999 128.000013,0 0,-79.9999 z m 7.999996,8.00001 15.999994,0 0,16.00002 -15.999994,0 z m 23.999991,0 15.999993,0 0,16.00002 -15.999993,0 z m 23.999989,0 15.999987,0 0,16.00002 -15.999987,0 z m 23.999987,0 16,0 0,16.00002 -16,0 z m 23.99999,0 16.00001,0 c 0,13.33202 0,28.08627 0,39.99988 l -16.00001,0 c 0,-13.33185 0,-28.08627 0,-39.99988 z m -95.999957,24.00003 15.999994,0 0,15.99985 -15.999994,0 z m 23.999991,0 15.999993,0 0,15.99985 -15.999993,0 z m 23.999989,0 15.999987,0 0,15.99985 -15.999987,0 z m 23.999987,0 16,0 0,15.99985 -16,0 z M 39.999993,996.3621 c 21.333326,0 42.66665,0 63.999967,0 l 0,16 c -21.333317,0 -42.666641,0 -63.999967,0 z m 71.999967,0 c 13.33206,0 28.08644,0 40,0 l 0,16 c -13.33335,0 -26.66667,0 -40,0 z"
       id="path3998-0-6"
       inkscape:connector-curvature="0"
       sodipodi:nodetypes="ccccccccccccccccccccccccccccccccccccccccccccccccccccccccccccccccccccccccc" />
  </g>
</svg>
