<?xml version="1.0" encoding="UTF-8" standalone="no"?>
<!-- Created using Karbon, part of Calligra: http://www.calligra.org/karbon -->

<svg
   xmlns:dc="http://purl.org/dc/elements/1.1/"
   xmlns:cc="http://creativecommons.org/ns#"
   xmlns:rdf="http://www.w3.org/1999/02/22-rdf-syntax-ns#"
   xmlns:svg="http://www.w3.org/2000/svg"
   xmlns="http://www.w3.org/2000/svg"
   xmlns:sodipodi="http://sodipodi.sourceforge.net/DTD/sodipodi-0.dtd"
   xmlns:inkscape="http://www.inkscape.org/namespaces/inkscape"
   width="102.4pt"
   height="102.4pt"
   id="svg2"
   version="1.1"
   inkscape:version="0.48.2 r9819"
   sodipodi:docname="fcitx-fullwidth-inactive.svg">
  <metadata
     id="metadata19">
    <rdf:RDF>
      <cc:Work
         rdf:about="">
        <dc:format>image/svg+xml</dc:format>
        <dc:type
           rdf:resource="http://purl.org/dc/dcmitype/StillImage" />
      </cc:Work>
    </rdf:RDF>
  </metadata>
  <sodipodi:namedview
     pagecolor="#ffffff"
     bordercolor="#666666"
     borderopacity="1"
     objecttolerance="10"
     gridtolerance="10"
     guidetolerance="10"
     inkscape:pageopacity="0"
     inkscape:pageshadow="2"
     inkscape:window-width="1366"
     inkscape:window-height="713"
     id="namedview17"
     showgrid="false"
     inkscape:zoom="1.84375"
     inkscape:cx="-17.355932"
     inkscape:cy="64"
     inkscape:window-x="-2"
     inkscape:window-y="-3"
     inkscape:window-maximized="1"
     inkscape:current-layer="layer1" />
  <defs
     id="defs4">
    <linearGradient
       id="gradient0"
       gradientTransform="translate(-23.4096, -19.3901)"
       gradientUnits="objectBoundingBox"
       x1="0.27282799384"
       y1="0.71577440276"
       x2="1.27282794924"
       y2="0.71577440276"
       spreadMethod="pad">
      <stop
         stop-color="#ffffff"
         offset="0.00000000000"
         stop-opacity="1.00000000000"
         id="stop7" />
      <stop
         stop-color="#ffffff"
         offset="0.81999999285"
         stop-opacity="0.71372549020"
         id="stop9" />
      <stop
         stop-color="#ffffff"
         offset="1.00000000000"
         stop-opacity="1.00000000000"
         id="stop11" />
    </linearGradient>
  </defs>
  <g
     id="layer1">
    <path
       id="path4432"
       transform="translate(19.25, 16.125)"
       fill="none"
       stroke="#000000"
       stroke-width="5.00000000000"
       stroke-linecap="butt"
       stroke-linejoin="miter"
       stroke-miterlimit="4.00000000000"
       opacity="0.40000000000"
       d="M48 0C50.0942 5.38925 51.25 11.2455 51.25 17.375C51.25 43.8847 29.7597 65.375 3.25 65.375C2.15599 65.375 1.07576 65.322 0 65.25C6.96314 83.1687 24.3699 95.875 44.75 95.875C71.2597 95.875 92.75 74.3847 92.75 47.875C92.75 22.4593 72.9916 1.67365 48 0Z" />
    <path
       id="path4508"
       transform="translate(23.4096, 19.3901)"
       fill="url(#gradient0)"
       d="M35.5015 89.6679C30.3528 89.0006 24.5607 87.2263 19.9658 84.909C12.322 81.054 4.41437 73.3236 0.748386 66.1223L0 64.6522L3.28646 64.4642C23.6961 63.2965 42.4209 47.8147 47.8819 27.5924C50.0555 19.5435 50.2199 9.851 48.311 2.28502C48.0205 1.13383 47.862 0.112832 47.9587 0.0161431C48.0554 -0.0805469 49.7921 0.267206 51.818 0.788925C68.5257 5.09152 81.474 18.6955 84.9782 35.6281C86.5196 43.0768 85.867 52.4909 83.3134 59.6401C76.8123 77.8418 59.253 90.1332 40.1443 89.8582C38.1801 89.8299 36.0908 89.7443 35.5015 89.6679Z"
       style="opacity:0.7" />
  </g>
</svg>
