<?xml version="1.0" standalone="no"?>
<!DOCTYPE svg PUBLIC "-//W3C//DTD SVG 20010904//EN" "http://www.w3.org/TR/2001/REC-SVG-20010904/DTD/svg10.dtd">
<!-- Created using Karbon, part of Calligra: http://www.calligra.org/karbon -->
<svg xmlns="http://www.w3.org/2000/svg" xmlns:xlink="http://www.w3.org/1999/xlink" width="102.4pt" height="102.4pt">
<defs>
  <linearGradient id="gradient0" gradientTransform="translate(-23.4096, -19.3901)" gradientUnits="objectBoundingBox" x1="0.27282799384" y1="0.71577440276" x2="1.27282794924" y2="0.71577440276" spreadMethod="pad">
   <stop stop-color="#ffffff" offset="0.00000000000" stop-opacity="1.00000000000"/>
   <stop stop-color="#ffffff" offset="0.81999999285" stop-opacity="0.71372549020"/>
   <stop stop-color="#ffffff" offset="1.00000000000" stop-opacity="1.00000000000"/>
  </linearGradient>
 </defs>
<g id="layer1">
  <path id="path3068" transform="translate(16.9124, 23.7463)" fill="#ffffff" fill-opacity="0.00000000000" opacity="0.70000000000" d="M24.7222 0C24.0921 1.05703 23.6481 2.2099 23.0813 3.30099C22.6357 4.31343 22.0696 5.26347 21.5539 6.24003C20.8912 7.34513 20.2121 8.44852 19.4551 9.49294C18.6741 10.7248 17.835 11.9139 16.9933 13.1053C16.0333 14.3377 15.1933 15.624 14.3937 16.964C13.4326 18.4321 12.6309 19.9891 11.7835 21.5221C10.863 22.917 10.2438 24.453 9.63596 26.0001C8.85923 27.8595 8.0389 29.7065 7.40265 31.6197C6.80228 33.6029 6.67426 35.6741 6.59453 37.7313C6.52592 39.945 6.55063 42.1601 6.55144 44.3745C6.55594 46.7317 6.54974 49.0889 6.55594 51.4461C6.72825 53.5366 7.08729 55.6014 7.64418 57.6217C8.17341 59.4442 8.72346 61.2651 9.29121 63.0768C9.62823 64.6122 10.2033 66.0374 10.9405 67.4191C11.7552 68.7941 12.6423 70.1332 13.5073 71.4813C14.226 72.8068 15.142 74.0117 15.8119 75.363C16.5192 76.7228 17.5374 77.8886 18.6879 78.8893C20.0938 79.959 21.7108 80.6589 23.2385 81.5176C24.9015 82.3071 26.5768 83.0939 28.313 83.7113C30.1475 84.6006 32.0943 85.0342 34.1051 85.2607C36.379 85.4542 38.6638 85.4392 40.9439 85.4554C43.7705 85.4644 46.597 85.4494 49.4236 85.4514C52.5371 85.4397 55.6507 85.4584 58.7642 85.4676C62.0725 85.4656 65.3809 85.4533 68.6892 85.4569C72.0619 85.4695 75.4346 85.4577 78.8073 85.4639C82.098 85.4549 85.3886 85.4619 88.6793 85.4569C91.6957 85.4529 94.712 85.4519 97.7284 85.4479C100.29 85.4657 102.817 84.935 105.36 84.6656C106.502 84.5041 107.669 84.5877 108.813 84.4712C109.889 84.3617 110.971 84.0922 112.036 83.9096C113.8 83.28 115.626 82.8858 117.42 82.3624C118.161 82.2163 118.849 81.918 119.475 81.5113C119.592 81.4354 119.956 81.2298 119.836 81.2993C117.805 82.4684 115.776 83.6396 113.746 84.8098C114.3 84.3864 114.866 83.9601 115.241 83.3638C115.637 82.6942 115.836 81.9481 116.116 81.2304C116.161 81.1098 116.205 80.9891 116.25 80.8684C116.25 80.8684 123.031 77.6784 123.031 77.6784L123.031 77.6784C122.993 77.8114 122.955 77.9444 122.917 78.0774C122.826 78.3118 122.696 78.5306 122.616 78.7689C122.448 79.2688 122.417 79.8182 122.059 80.244C121.817 81.0056 121.362 81.5706 120.707 82.0258C117.533 83.914 114.999 86.0374 111.541 86.8872C109.751 87.3815 107.951 87.8411 106.161 88.3325C103.939 88.7115 101.719 88.9243 99.4682 89.044C96.9319 89.3258 94.4014 89.804 91.8404 89.7258C88.8327 89.7218 85.825 89.7198 82.8172 89.7168C79.533 89.7118 76.2489 89.7188 72.9647 89.7098C69.5855 89.7158 66.2062 89.7048 62.827 89.7168C59.5284 89.7198 56.2298 89.7078 52.9312 89.7063C49.7996 89.7163 46.6679 89.735 43.5362 89.7307C40.7016 89.7397 37.8669 89.7397 35.0323 89.7493C32.7204 89.7543 30.4011 89.7641 28.0997 89.5116C26.0459 89.2293 24.0847 88.689 22.1883 87.837C20.4419 87.1581 18.716 86.4079 17.0449 85.5607C15.4536 84.7133 13.8347 83.9108 12.4063 82.7929C11.2049 81.714 10.0894 80.487 9.35923 79.0342C8.70579 77.7074 7.79598 76.5289 7.10637 75.2194C6.22803 73.86 5.33612 72.5007 4.5283 71.1011C3.74175 69.6863 3.10602 68.2312 2.79345 66.633C2.25742 64.8013 1.72042 62.971 1.16684 61.1463C0.588185 59.0591 0.240729 56.9331 0.0234891 54.7761C0.0267891 52.4213 0.0160891 50.0666 0.00754907 47.7118C-0.00225093 45.4921 -0.00667093 43.2721 0.0208491 41.0525C0.0884591 38.9393 0.197387 36.8126 0.748069 34.7596C1.32455 32.8227 2.13832 30.9687 2.93807 29.1149C3.51277 27.528 4.09004 25.9449 5.01523 24.5217C5.97263 23.0606 6.6096 21.3966 7.622 19.96C8.04183 19.2885 8.37027 18.562 8.7918 17.895C9.44034 16.8688 9.03123 17.6728 9.76038 16.7305C9.92414 16.5189 10.0503 16.2807 10.1952 16.0557C11.0423 14.8761 11.89 13.7059 12.6341 12.4651C12.7565 12.279 12.879 12.0929 13.0015 11.9068C13.1383 11.7507 13.2947 11.6097 13.4119 11.4384C13.8808 10.7529 14.1805 9.93652 14.7727 9.32865C15.2021 8.30163 15.872 7.40305 16.28 6.36471C16.8513 5.27624 17.4052 4.18601 17.8622 3.04146C17.8622 3.04146 24.7222 0.00102 24.7222 0.00102Z"/>
  <path id="path4432" transform="translate(19.25, 16.125)" fill="none" stroke="#000000" stroke-width="5.00000000000" stroke-linecap="butt" stroke-linejoin="miter" stroke-miterlimit="4.00000000000" opacity="0.40000000000" d="M48 0C50.0942 5.38925 51.25 11.2455 51.25 17.375C51.25 43.8847 29.7597 65.375 3.25 65.375C2.15599 65.375 1.07576 65.322 0 65.25C6.96314 83.1687 24.3699 95.875 44.75 95.875C71.2597 95.875 92.75 74.3847 92.75 47.875C92.75 22.4593 72.9916 1.67365 48 0Z"/>
  <path id="path4508" transform="translate(23.4096, 19.3901)" fill="url(#gradient0)" d="M35.5015 89.6679C30.3528 89.0006 24.5607 87.2263 19.9658 84.909C12.322 81.054 4.41437 73.3236 0.748386 66.1223L0 64.6522L3.28646 64.4642C23.6961 63.2965 42.4209 47.8147 47.8819 27.5924C50.0555 19.5435 50.2199 9.851 48.311 2.28502C48.0205 1.13383 47.862 0.112832 47.9587 0.0161431C48.0554 -0.0805469 49.7921 0.267206 51.818 0.788925C68.5257 5.09152 81.474 18.6955 84.9782 35.6281C86.5196 43.0768 85.867 52.4909 83.3134 59.6401C76.8123 77.8418 59.253 90.1332 40.1443 89.8582C38.1801 89.8299 36.0908 89.7443 35.5015 89.6679Z"/>
 </g>
</svg>
