<?xml version="1.0" encoding="UTF-8" standalone="no"?>
<!-- Created using Karbon, part of Calligra: http://www.calligra.org/karbon -->

<svg
   xmlns:dc="http://purl.org/dc/elements/1.1/"
   xmlns:cc="http://creativecommons.org/ns#"
   xmlns:rdf="http://www.w3.org/1999/02/22-rdf-syntax-ns#"
   xmlns:svg="http://www.w3.org/2000/svg"
   xmlns="http://www.w3.org/2000/svg"
   xmlns:sodipodi="http://sodipodi.sourceforge.net/DTD/sodipodi-0.dtd"
   xmlns:inkscape="http://www.inkscape.org/namespaces/inkscape"
   width="153.6pt"
   height="153.6pt"
   id="svg2"
   version="1.1"
   inkscape:version="0.48.2 r9819"
   sodipodi:docname="fcitx-vk-active.svg">
  <metadata
     id="metadata18">
    <rdf:RDF>
      <cc:Work
         rdf:about="">
        <dc:format>image/svg+xml</dc:format>
        <dc:type
           rdf:resource="http://purl.org/dc/dcmitype/StillImage" />
      </cc:Work>
    </rdf:RDF>
  </metadata>
  <sodipodi:namedview
     pagecolor="#ffffff"
     bordercolor="#666666"
     borderopacity="1"
     objecttolerance="10"
     gridtolerance="10"
     guidetolerance="10"
     inkscape:pageopacity="0"
     inkscape:pageshadow="2"
     inkscape:window-width="688"
     inkscape:window-height="480"
     id="namedview16"
     showgrid="false"
     inkscape:zoom="1.2291667"
     inkscape:cx="96"
     inkscape:cy="96"
     inkscape:window-x="0"
     inkscape:window-y="0"
     inkscape:window-maximized="0"
     inkscape:current-layer="layer1" />
  <defs
     id="defs4">
    <linearGradient
       id="gradient0"
       gradientTransform="matrix(2 0 0 2 -28 -88)"
       gradientUnits="objectBoundingBox"
       x1="0.05000000000"
       y1="0.74999948864"
       x2="0.75000000000"
       y2="0.74999948864"
       spreadMethod="pad">
      <stop
         stop-color="#ffffff"
         offset="0.00000000000"
         stop-opacity="1.00000000000"
         id="stop7" />
      <stop
         stop-color="#ffffff"
         offset="0.81999999285"
         stop-opacity="0.71372549020"
         id="stop9" />
      <stop
         stop-color="#ffffff"
         offset="1.00000000000"
         stop-opacity="1.00000000000"
         id="stop11" />
    </linearGradient>
  </defs>
  <g
     id="layer1">
    <path
       id="path5518"
       transform="translate(8, 47.9999)"
       fill="#000000"
       opacity="0.40000000000"
       d="M0 0L0 104L176 104L176 1e-05ZM8 8L32 8L32 32L8 32ZM40 8L64 8L64 32L40 32ZM72 8L96 8L96 32L72 32ZM104 8L128 8L128 32L104 32ZM136 8L167 8.00001L167 32L136 32ZM8 40L48 40L48 64L8 64ZM56 40L80 40L80 64L56 64ZM88 40L112 40L112 64L88 64ZM120 40L144 40L144 64L120 64ZM152 40L168 40L168 64L152 64ZM8 72L40 72L40 96.0001L8 96.0001ZM48 72L168 72L168 96.0001L48 96.0001Z" />
    <path
       id="path5518-1"
       transform="translate(16, 56)"
       fill="url(#gradient0)"
       d="M0 0L24 0L24 24L0 24ZM32 0L56 0L56 24L32 24ZM64 0L88 0L88 24L64 24ZM96 0L120 0L120 24L96 24ZM128 0L159 1e-05L159 24L128 24ZM0 32L40 32L40 56L0 56ZM48 32L72 32L72 56L48 56ZM80 32L104 32L104 56L80 56ZM112 32L136 32L136 56L112 56ZM144 32L160 32L160 56L144 56ZM0 64L32 64L32 88.0001L0 88.0001ZM40 64L160 64L160 88.0001L40 88.0001Z"
       style="opacity:0.7" />
  </g>
</svg>
