<?xml version="1.0" encoding="UTF-8" standalone="no"?>
<!-- Created using Karbon, part of Calligra: http://www.calligra.org/karbon -->

<svg
   xmlns:dc="http://purl.org/dc/elements/1.1/"
   xmlns:cc="http://creativecommons.org/ns#"
   xmlns:rdf="http://www.w3.org/1999/02/22-rdf-syntax-ns#"
   xmlns:svg="http://www.w3.org/2000/svg"
   xmlns="http://www.w3.org/2000/svg"
   xmlns:xlink="http://www.w3.org/1999/xlink"
   xmlns:sodipodi="http://sodipodi.sourceforge.net/DTD/sodipodi-0.dtd"
   xmlns:inkscape="http://www.inkscape.org/namespaces/inkscape"
   width="12.8pt"
   height="12.8pt"
   id="svg3904"
   version="1.1"
   inkscape:version="0.48.2 r9819"
   sodipodi:docname="fcitx-vk-inactive-16.svg">
  <metadata
     id="metadata3912">
    <rdf:RDF>
      <cc:Work
         rdf:about="">
        <dc:format>image/svg+xml</dc:format>
        <dc:type
           rdf:resource="http://purl.org/dc/dcmitype/StillImage" />
      </cc:Work>
    </rdf:RDF>
  </metadata>
  <sodipodi:namedview
     pagecolor="#ffffff"
     bordercolor="#666666"
     borderopacity="1"
     objecttolerance="10"
     gridtolerance="10"
     guidetolerance="10"
     inkscape:pageopacity="0"
     inkscape:pageshadow="2"
     inkscape:window-width="698"
     inkscape:window-height="480"
     id="namedview3910"
     showgrid="false"
     inkscape:zoom="14.75"
     inkscape:cx="8"
     inkscape:cy="8"
     inkscape:window-x="692"
     inkscape:window-y="112"
     inkscape:window-maximized="0"
     inkscape:current-layer="svg3904" />
  <defs
     id="defs3906">
    <linearGradient
       id="gradient0"
       gradientTransform="matrix(0.159091,0,0,0.115385,-2.95455,-4.9231)"
       gradientUnits="objectBoundingBox"
       x1="0.66666669"
       y1="13.2"
       x2="10"
       y2="13.2"
       spreadMethod="pad">
      <stop
         stop-color="#ffffff"
         offset="0"
         stop-opacity="1.00000000000"
         id="stop7"
         style="stop-color:#dedede;stop-opacity:1;" />
      <stop
         stop-color="#ffffff"
         offset="0.81999999"
         stop-opacity="0.71372549020"
         id="stop9"
         style="stop-color:#dedede;stop-opacity:0.86400002;" />
      <stop
         stop-color="#ffffff"
         offset="1"
         stop-opacity="1.00000000000"
         id="stop11"
         style="stop-color:#dedede;stop-opacity:1;" />
    </linearGradient>
    <linearGradient
       y2="102.24676"
       x2="77.459667"
       y1="102.24676"
       x1="5.1639779"
       spreadMethod="pad"
       gradientTransform="matrix(1.5491933,0,0,0.64549722,2,6)"
       gradientUnits="userSpaceOnUse"
       id="linearGradient3929"
       xlink:href="#gradient0"
       inkscape:collect="always" />
  </defs>
  <g
     id="layer1">
    <path
       id="path5518"
       transform="translate(1, 5)"
       fill="#000000"
       opacity="0.40000000000"
       d="M0 0L0 7L14 7L14 0ZM1 1L3 1L3 2L1 2ZM4 1L5 1L5 2L4 2ZM6 1L7 1L7 2L6 2ZM8 1L9 1L9 2L8 2ZM10 1L11 1L11 2L10 2ZM12 1L13 1L13 2L12 2ZM1 3L4 3L4 4L1 4ZM5 3L7 3L7 4L5 4ZM8 3L10 3L10 4L8 4ZM11 3L13 3L13 4L11 4ZM1 5L3 5L3 6L1 6ZM4 5L13 5L13 6L4 6Z" />
  </g>
  <path
     inkscape:connector-curvature="0"
     id="path5518-6"
     d="M 2,6 4,6 4,7 2,7 z M 5,6 6,6 6,7 5,7 z M 7,6 8,6 8,7 7,7 z m 2,0 1,0 0,1 -1,0 z m 2,0 1,0 0,1 -1,0 z m 2,0 1,0 0,1 -1,0 z M 2,8 5,8 5,9 2,9 z M 6,8 8,8 8,9 6,9 z m 3,0 2,0 0,1 -2,0 z m 3,0 2,0 0,1 -2,0 z m -10,2 2,0 0,1 -2,0 z m 3,0 9,0 0,1 -9,0 z"
     style="opacity:0.7;fill:url(#linearGradient3929)" />
</svg>
