<?xml version="1.0" encoding="UTF-8" standalone="no"?>
<!-- Created using Karbon, part of Calligra: http://www.calligra.org/karbon -->

<svg
   xmlns:dc="http://purl.org/dc/elements/1.1/"
   xmlns:cc="http://creativecommons.org/ns#"
   xmlns:rdf="http://www.w3.org/1999/02/22-rdf-syntax-ns#"
   xmlns:svg="http://www.w3.org/2000/svg"
   xmlns="http://www.w3.org/2000/svg"
   xmlns:sodipodi="http://sodipodi.sourceforge.net/DTD/sodipodi-0.dtd"
   xmlns:inkscape="http://www.inkscape.org/namespaces/inkscape"
   width="12.8pt"
   height="12.8pt"
   id="svg2"
   version="1.1"
   inkscape:version="0.48.2 r9819"
   sodipodi:docname="fcitx-vk-active-16.svg">
  <metadata
     id="metadata18">
    <rdf:RDF>
      <cc:Work
         rdf:about="">
        <dc:format>image/svg+xml</dc:format>
        <dc:type
           rdf:resource="http://purl.org/dc/dcmitype/StillImage" />
      </cc:Work>
    </rdf:RDF>
  </metadata>
  <sodipodi:namedview
     pagecolor="#ffffff"
     bordercolor="#666666"
     borderopacity="1"
     objecttolerance="10"
     gridtolerance="10"
     guidetolerance="10"
     inkscape:pageopacity="0"
     inkscape:pageshadow="2"
     inkscape:window-width="1366"
     inkscape:window-height="713"
     id="namedview16"
     showgrid="false"
     inkscape:zoom="14.75"
     inkscape:cx="8"
     inkscape:cy="8"
     inkscape:window-x="-2"
     inkscape:window-y="-3"
     inkscape:window-maximized="1"
     inkscape:current-layer="layer1" />
  <defs
     id="defs4">
    <linearGradient
       id="gradient0"
       gradientTransform="matrix(0.159091 0 0 0.115385 -2.95455 -4.9231)"
       gradientUnits="objectBoundingBox"
       x1="0.66666666667"
       y1="13.20000000000"
       x2="10.00000000000"
       y2="13.20000000000"
       spreadMethod="pad">
      <stop
         stop-color="#ffffff"
         offset="0.00000000000"
         stop-opacity="1.00000000000"
         id="stop7" />
      <stop
         stop-color="#ffffff"
         offset="0.81999999285"
         stop-opacity="0.71372549020"
         id="stop9" />
      <stop
         stop-color="#ffffff"
         offset="1.00000000000"
         stop-opacity="1.00000000000"
         id="stop11" />
    </linearGradient>
  </defs>
  <g
     id="layer1">
    <path
       id="path5518"
       transform="translate(1, 5)"
       fill="#000000"
       opacity="0.40000000000"
       d="M0 0L0 7L14 7L14 0ZM1 1L3 1L3 2L1 2ZM4 1L5 1L5 2L4 2ZM6 1L7 1L7 2L6 2ZM8 1L9 1L9 2L8 2ZM10 1L11 1L11 2L10 2ZM12 1L13 1L13 2L12 2ZM1 3L4 3L4 4L1 4ZM5 3L7 3L7 4L5 4ZM8 3L10 3L10 4L8 4ZM11 3L13 3L13 4L11 4ZM1 5L3 5L3 6L1 6ZM4 5L13 5L13 6L4 6Z" />
    <path
       id="path5518-6"
       transform="translate(2, 6)"
       fill="url(#gradient0)"
       d="M0 0L2 0L2 1L0 1ZM3 0L4 0L4 1L3 1ZM5 0L6 0L6 1L5 1ZM7 0L8 0L8 1L7 1ZM9 0L10 0L10 1L9 1ZM11 0L12 0L12 1L11 1ZM0 2L3 2L3 3L0 3ZM4 2L6 2L6 3L4 3ZM7 2L9 2L9 3L7 3ZM10 2L12 2L12 3L10 3ZM0 4L2 4L2 5L0 5ZM3 4L12 4L12 5L3 5Z"
       style="opacity:0.7" />
  </g>
</svg>
