<?xml version="1.0" encoding="UTF-8" standalone="no"?>
<!-- Created using Karbon, part of Calligra: http://www.calligra.org/karbon -->

<svg
   xmlns:dc="http://purl.org/dc/elements/1.1/"
   xmlns:cc="http://creativecommons.org/ns#"
   xmlns:rdf="http://www.w3.org/1999/02/22-rdf-syntax-ns#"
   xmlns:svg="http://www.w3.org/2000/svg"
   xmlns="http://www.w3.org/2000/svg"
   xmlns:sodipodi="http://sodipodi.sourceforge.net/DTD/sodipodi-0.dtd"
   xmlns:inkscape="http://www.inkscape.org/namespaces/inkscape"
   width="12.8pt"
   height="12.8pt"
   id="svg2"
   version="1.1"
   inkscape:version="0.48.2 r9819"
   sodipodi:docname="fcitx-keyboard-16.svg">
  <metadata
     id="metadata18">
    <rdf:RDF>
      <cc:Work
         rdf:about="">
        <dc:format>image/svg+xml</dc:format>
        <dc:type
           rdf:resource="http://purl.org/dc/dcmitype/StillImage" />
      </cc:Work>
    </rdf:RDF>
  </metadata>
  <sodipodi:namedview
     pagecolor="#ffffff"
     bordercolor="#666666"
     borderopacity="1"
     objecttolerance="10"
     gridtolerance="10"
     guidetolerance="10"
     inkscape:pageopacity="0"
     inkscape:pageshadow="2"
     inkscape:window-width="1366"
     inkscape:window-height="713"
     id="namedview16"
     showgrid="false"
     inkscape:zoom="14.75"
     inkscape:cx="-2.1694915"
     inkscape:cy="8"
     inkscape:window-x="-2"
     inkscape:window-y="-3"
     inkscape:window-maximized="1"
     inkscape:current-layer="layer1" />
  <defs
     id="defs4">
    <linearGradient
       id="gradient0"
       gradientTransform="translate(-2, -4)"
       gradientUnits="objectBoundingBox"
       x1="0.66429515833"
       y1="0.44426666667"
       x2="0.66429515833"
       y2="1.33315555556"
       spreadMethod="pad">
      <stop
         stop-color="#ffffff"
         offset="0.00000000000"
         stop-opacity="1.00000000000"
         id="stop7" />
      <stop
         stop-color="#ffffff"
         offset="0.81879192591"
         stop-opacity="0.71505302510"
         id="stop9" />
      <stop
         stop-color="#ffffff"
         offset="1.00000000000"
         stop-opacity="1.00000000000"
         id="stop11" />
    </linearGradient>
  </defs>
  <g
     id="layer1">
    <path
       id="path3850"
       transform="translate(1, 3)"
       fill="#000000"
       opacity="0.40000000000"
       d="M2 0C0.85629 0 0 0.848 0 2L0 9C0 10.1551 0.916667 11 2 11L12 11C13.1277 11 14 10.1104 14 9L14 2C14 0.9007 13.0993 0 12 0ZM2 1L12 1C12.5469 1 13 1.4531 13 2L13 9C13 9.524 12.5391 10 12 10L2 10C1.5 10 1 9.5625 1 9L1 2C1 1.4844 1.49219 1 2 1ZM1.96875 2L1.96875 5.5L1.96875 9.03125L7 9.03125L12.0312 9.03125L12.0312 5.5L12.0312 2L7 2ZM3.03125 3L4 3L5 3L5 3.46875L5 3.96875L4.3125 3.96875C3.9341 3.96895 3.47467 3.985 3.3125 4L3.03125 4L3.03125 3.5ZM6 3L6.46875 3L6.96875 3L6.96875 3.46875L6.96875 3.96875L6.46875 3.96875L6 3.96875L6 3.46875ZM8 3L8.5 3L8.96875 3L8.96875 3.46875L8.96875 3.96875L8.5 3.96875L8 3.96875L8 3.46875ZM10.0312 3L10.5 3L10.9687 3L10.9687 4.46875L10.9687 5.96875L10.5 5.96875L10.0312 5.96875L10.0312 4.46875ZM3.03125 5L4 5L5 5L5 5.5L5 5.96875L4 5.96875L3.03125 5.96875L3.03125 5.5ZM6 5L6.46875 5L6.96875 5L6.96875 5.5L6.96875 5.96875L6.46875 5.96875L6 5.96875L6 5.5ZM8 5L8.5 5L8.96875 5L8.96875 5.5L8.96875 5.96875L8.5 5.96875L8 5.96875L8 5.5ZM3.03125 7.03125L5 7.03125L6.96875 7.03125L6.96875 7.5L6.96875 7.96875L5 7.96875L3.03125 7.96875L3.03125 7.5ZM8 7.03125L9.5 7.03125L10.9687 7.03125L10.9687 7.5L10.9687 7.96875L9.5 7.96875L8 7.96875L8 7.5Z" />
    <path
       id="path3850-1"
       transform="translate(2.02846, 4.0016)"
       fill="url(#gradient0)"
       d="M7.01053 2.4789L7.01053 1.9984L7.49104 1.9984L7.97154 1.9984L7.97154 2.4789L7.97154 2.9594L7.49104 2.9594L7.01053 2.9594ZM9.01992 3.4836L9.01992 1.9984L9.50042 1.9984L9.98093 1.9984L9.98093 3.4836L9.98093 4.9688L9.50042 4.9688L9.01992 4.9688ZM7.01053 4.4883L7.01053 4.0078L7.49104 4.0078L7.97154 4.0078L7.97154 4.4883L7.97154 4.9688L7.49104 4.9688L7.01053 4.9688ZM7.01053 6.4977L7.01053 6.0172L8.49573 6.0172L9.98093 6.0172L9.98093 6.4977L9.98093 6.9782L8.49573 6.9782L7.01053 6.9782ZM5.00115 4.4883L5.00115 4.0078L5.48165 4.0078L5.96216 4.0078L5.96216 4.4883L5.96216 4.9688L5.48165 4.9688L5.00115 4.9688ZM2.03075 6.4977L2.03075 6.0172L3.99646 6.0172L5.96216 6.0172L5.96216 6.4977L5.96216 6.9782L3.99646 6.9782L2.03075 6.9782ZM2.03075 4.4883L2.03075 4.0078L3.0136 4.0078L3.99646 4.0078L3.99646 4.4883L3.99646 4.9688L3.0136 4.9688L2.03075 4.9688ZM5.00115 2.4789L5.00115 1.9984L5.48165 1.9984L5.96216 1.9984L5.96216 2.4789L5.96216 2.9594L5.48165 2.9594L5.00115 2.9594ZM2.03075 2.5069L2.03075 1.9982L3.0136 1.9982L3.99646 1.9982L3.99646 2.4787L3.99646 2.9592L3.30846 2.9595C2.93006 2.9597 2.48778 2.9725 2.32561 2.9875L2.03075 3.0155ZM0 1C0 0.4844 0.492188 0 1 0L11 0C11.5469 0 12 0.4531 12 1C12 1.7462 12 7.2538 12 8C12 8.524 11.5391 9 11 9L1 9C0.5 9 0 8.5625 0 8C0 5.7211 0 3.1553 0 1ZM11.0293 4.5101L11.0293 0.9937L6.00584 0.9937L0.982379 0.9937L0.982379 4.5101L0.982379 8.0265L6.00584 8.0265L11.0293 8.0265Z"
       style="opacity:0.7" />
  </g>
</svg>
