<?xml version="1.0" encoding="UTF-8" standalone="no"?>
<!-- Created with Inkscape (http://www.inkscape.org/) -->

<svg
   xmlns:dc="http://purl.org/dc/elements/1.1/"
   xmlns:cc="http://creativecommons.org/ns#"
   xmlns:rdf="http://www.w3.org/1999/02/22-rdf-syntax-ns#"
   xmlns:svg="http://www.w3.org/2000/svg"
   xmlns="http://www.w3.org/2000/svg"
   xmlns:xlink="http://www.w3.org/1999/xlink"
   xmlns:sodipodi="http://sodipodi.sourceforge.net/DTD/sodipodi-0.dtd"
   xmlns:inkscape="http://www.inkscape.org/namespaces/inkscape"
   width="16"
   height="16"
   id="svg2"
   version="1.1"
   inkscape:version="0.48.2 r9819"
   sodipodi:docname="fcitx-keyboard-16.svg"
   inkscape:export-filename="/home/saber/Develop/fcitx/data/icon/16x16/status/fcitx-keyboard.png"
   inkscape:export-xdpi="90"
   inkscape:export-ydpi="90">
  <defs
     id="defs4">
    <linearGradient
       id="linearGradient7886">
      <stop
         style="stop-color:#ececec;stop-opacity:1;"
         offset="0"
         id="stop7888" />
      <stop
         id="stop7890"
         offset="0.81879193"
         style="stop-color:#e8e8e8;stop-opacity:0.71505374;" />
      <stop
         style="stop-color:#e8e8e8;stop-opacity:1;"
         offset="1"
         id="stop7892" />
    </linearGradient>
    <linearGradient
       id="linearGradient7717">
      <stop
         id="stop7719"
         offset="0"
         style="stop-color:#ffffff;stop-opacity:1;" />
      <stop
         style="stop-color:#ffffff;stop-opacity:0.71505374;"
         offset="0.81879193"
         id="stop7723" />
      <stop
         id="stop7721"
         offset="1"
         style="stop-color:#ffffff;stop-opacity:1;" />
    </linearGradient>
    <linearGradient
       inkscape:collect="always"
       xlink:href="#linearGradient5008-0"
       id="linearGradient5765-0"
       gradientUnits="userSpaceOnUse"
       x1="3.499999"
       y1="1028.3622"
       x2="44.5"
       y2="1028.3622" />
    <linearGradient
       id="linearGradient5008-0">
      <stop
         style="stop-color:#000000;stop-opacity:0.15686275;"
         offset="0"
         id="stop5010-0" />
      <stop
         id="stop5016-4"
         offset="0.5"
         style="stop-color:#000000;stop-opacity:0.39215687;" />
      <stop
         style="stop-color:#000000;stop-opacity:0.15686275;"
         offset="1"
         id="stop5012-7" />
    </linearGradient>
    <linearGradient
       inkscape:collect="always"
       xlink:href="#linearGradient5008-1"
       id="linearGradient5765-3"
       gradientUnits="userSpaceOnUse"
       x1="3.499999"
       y1="1028.3622"
       x2="44.5"
       y2="1028.3622" />
    <linearGradient
       id="linearGradient5008-1">
      <stop
         style="stop-color:#000000;stop-opacity:0.15686275;"
         offset="0"
         id="stop5010-4" />
      <stop
         id="stop5016-2"
         offset="0.5"
         style="stop-color:#000000;stop-opacity:0.39215687;" />
      <stop
         style="stop-color:#000000;stop-opacity:0.15686275;"
         offset="1"
         id="stop5012-0" />
    </linearGradient>
    <linearGradient
       inkscape:collect="always"
       xlink:href="#linearGradient5008-1"
       id="linearGradient7780"
       gradientUnits="userSpaceOnUse"
       x1="1"
       y1="11"
       x2="21"
       y2="11"
       gradientTransform="matrix(0.6999997,0,0,0.65000016,2.3625006,1033.681)" />
    <linearGradient
       inkscape:collect="always"
       xlink:href="#linearGradient5008-1-1"
       id="linearGradient7780-4"
       gradientUnits="userSpaceOnUse"
       x1="1"
       y1="11"
       x2="21"
       y2="11" />
    <linearGradient
       id="linearGradient5008-1-1">
      <stop
         style="stop-color:#000000;stop-opacity:0.15686275;"
         offset="0"
         id="stop5010-4-4" />
      <stop
         id="stop5016-2-2"
         offset="0.5"
         style="stop-color:#000000;stop-opacity:0.39215687;" />
      <stop
         style="stop-color:#000000;stop-opacity:0.15686275;"
         offset="1"
         id="stop5012-0-0" />
    </linearGradient>
    <linearGradient
       inkscape:collect="always"
       xlink:href="#linearGradient5008-1-1"
       id="linearGradient7832"
       gradientUnits="userSpaceOnUse"
       gradientTransform="translate(34,-1)"
       x1="1"
       y1="11"
       x2="21"
       y2="11" />
    <linearGradient
       inkscape:collect="always"
       xlink:href="#linearGradient5008-1-1"
       id="linearGradient7847"
       gradientUnits="userSpaceOnUse"
       gradientTransform="translate(51,1030.3622)"
       x1="1"
       y1="11"
       x2="21"
       y2="11" />
    <linearGradient
       inkscape:collect="always"
       xlink:href="#linearGradient5008-1-1"
       id="linearGradient7849"
       gradientUnits="userSpaceOnUse"
       gradientTransform="translate(44,1017.3622)"
       x1="1"
       y1="11"
       x2="21"
       y2="11" />
    <linearGradient
       inkscape:collect="always"
       xlink:href="#linearGradient7717"
       id="linearGradient3828"
       x1="2.0112219"
       y1="7.5329514"
       x2="13.980164"
       y2="7.5329514"
       gradientUnits="userSpaceOnUse" />
    <linearGradient
       inkscape:collect="always"
       xlink:href="#linearGradient7717"
       id="linearGradient3885"
       x1="2.0213685"
       y1="8.5101233"
       x2="13.990311"
       y2="8.5101233"
       gradientUnits="userSpaceOnUse" />
  </defs>
  <sodipodi:namedview
     id="base"
     pagecolor="#216ccf"
     bordercolor="#666666"
     borderopacity="1.0"
     inkscape:pageopacity="0"
     inkscape:pageshadow="2"
     inkscape:zoom="22.892582"
     inkscape:cx="-0.32240038"
     inkscape:cy="5.9466793"
     inkscape:document-units="px"
     inkscape:current-layer="layer1"
     showgrid="true"
     inkscape:window-width="1366"
     inkscape:window-height="713"
     inkscape:window-x="-2"
     inkscape:window-y="-3"
     inkscape:window-maximized="1"
     inkscape:snap-global="true"
     inkscape:snap-to-guides="false"
     fit-margin-top="0"
     fit-margin-left="0"
     fit-margin-right="0"
     fit-margin-bottom="0"
     showguides="true"
     inkscape:guide-bbox="true">
    <inkscape:grid
       empspacing="5"
       visible="true"
       enabled="true"
       snapvisiblegridlinesonly="true"
       type="xygrid"
       id="grid3981" />
    <sodipodi:guide
       orientation="0,1"
       position="6.7707522,8.2122672"
       id="guide3830" />
  </sodipodi:namedview>
  <metadata
     id="metadata7">
    <rdf:RDF>
      <cc:Work
         rdf:about="">
        <dc:format>image/svg+xml</dc:format>
        <dc:type
           rdf:resource="http://purl.org/dc/dcmitype/StillImage" />
        <dc:title></dc:title>
      </cc:Work>
    </rdf:RDF>
  </metadata>
  <g
     inkscape:label="Layer 1"
     inkscape:groupmode="layer"
     id="layer1"
     transform="translate(-2.0625,-1034.331)">
    <path
       style="font-size:medium;font-style:normal;font-variant:normal;font-weight:normal;font-stretch:normal;text-indent:0;text-align:start;text-decoration:none;line-height:normal;letter-spacing:normal;word-spacing:normal;text-transform:none;direction:ltr;block-progression:tb;writing-mode:lr-tb;text-anchor:start;baseline-shift:baseline;color:#000000;fill:url(#linearGradient7780);fill-opacity:1;fill-rule:nonzero;stroke:none;stroke-width:0.89999998;marker:none;visibility:visible;display:inline;overflow:visible;enable-background:accumulate;font-family:Sans;-inkscape-font-specification:Sans"
       mask="none"
       d="m 3.0625,1037.331 0,11 14,0 0,-11 z m 13,1 0,9 -12,0 0,-9 z m -11,1 0,7 10,0 0,-7 z m 1,1 2,0 0,1 -2,0 z m 3,0 1,0 0,1 -1,0 z m 2,0 1,0 0,1 -1,0 z m 2,0 1,0 0,3 -1,0 z m -7,2 2,0 0,1 -2,0 z m 3,0 1,0 0,1 -1,0 z m 2,0 1,0 0,1 -1,0 z m -5.0000004,2 4.0000004,0 0,1 -4.0000004,0 z m 5.0000004,0 3,0 0,1 -3,0 z"
       id="path3998-0"
       inkscape:connector-curvature="0"
       sodipodi:nodetypes="cccccccccccccccccccccccccccccccccccccccccccccccccccccccccccc" />
    <path
       id="path3850"
       style="fill:url(#linearGradient3885);stroke:none;fill-opacity:1;opacity:1"
       d="m 9.0105322,6.4788973 0,-0.480505 0.480505,0 0.4805049,0 0,0.480505 0,0.480505 -0.4805049,0 -0.480505,0 0,-0.480505 z m 2.0093848,1.0046922 0,-1.4851972 0.480505,0 0.480505,0 0,1.4851972 0,1.4851973 -0.480505,0 -0.480505,0 0,-1.4851973 z m -2.0093848,1.0046923 0,-0.480505 0.480505,0 0.4805049,0 0,0.480505 0,0.480505 -0.4805049,0 -0.480505,0 0,-0.480505 z m 0,2.0093842 0,-0.480505 1.4851968,0 1.485198,0 0,0.480505 0,0.480505 -1.485198,0 -1.4851968,0 0,-0.480505 z m -2.0093846,-2.0093842 0,-0.480505 0.480505,0 0.480505,0 0,0.480505 0,0.480505 -0.480505,0 -0.480505,0 0,-0.480505 z m -2.9703945,2.0093842 0,-0.480505 1.9657023,0 1.9657022,0 0,0.480505 0,0.480505 -1.9657022,0 -1.9657023,0 0,-0.480505 z m 0,-2.0093842 0,-0.480505 0.9828512,0 0.9828511,0 0,0.480505 0,0.480505 -0.9828511,0 -0.9828512,0 0,-0.480505 z m 2.9703945,-2.0093845 0,-0.480505 0.480505,0 0.480505,0 0,0.480505 0,0.480505 -0.480505,0 -0.480505,0 0,-0.480505 z m -2.9703945,0.028158 0,-0.5086628 0.9828512,0 0.9828511,0 0,0.480505 0,0.480505 -0.6879958,3.101e-4 c -0.3783977,1.704e-4 -0.8206807,0.012842 -0.9828511,0.028158 l -0.2948554,0.027848 0,-0.5086628 z m -2.0093845,2.0030678 0,-4.4774329 5.9844713,0 5.9844711,0 0,4.4774329 0,4.4774331 -5.9844711,0 -5.9844713,0 0,-4.4774331 z m 11.0079324,0 0,-3.5164229 -5.0234611,0 -5.0234613,0 0,3.5164229 0,3.5164231 5.0234613,0 5.0234611,0 0,-3.5164231 z"
       transform="translate(2.0625,1034.331)"
       inkscape:export-filename="/home/saber/Develop/fcitx/data/icon/16x16/status/fcitx-vk-inactive.png"
       inkscape:export-xdpi="90"
       inkscape:export-ydpi="90" />
  </g>
</svg>
